<?xml version="1.0" standalone="no"?><svg xmlns="http://www.w3.org/2000/svg" viewBox="0 0 1440 320"><path fill="#f8e1f6" fill-opacity="1" d="M0,32L30,37.3C60,43,120,53,180,74.7C240,96,300,128,360,165.3C420,203,480,245,540,218.7C600,192,660,96,720,64C780,32,840,64,900,96C960,128,1020,160,1080,160C1140,160,1200,128,1260,133.3C1320,139,1380,181,1410,202.7L1440,224L1440,320L1410,320C1380,320,1320,320,1260,320C1200,320,1140,320,1080,320C1020,320,960,320,900,320C840,320,780,320,720,320C660,320,600,320,540,320C480,320,420,320,360,320C300,320,240,320,180,320C120,320,60,320,30,320L0,320Z"></path></svg>